# xmcd
#
# Track frame offsets: 
#        150
#        17517
#        29900
#        46922
#        65232
#        78917
#        99627
#        114235
#        129815
#        142145
#        160055
#        180362
#
# Disc length: 2638 seconds
#
# Revision: 0
# Processed by: cddbd v1.5.2PL0 Copyright (c) Steve Scherf et al.
# Submitted via: ExactAudioCopy v1.0b3
#
DISCID=990a4c0c
DTITLE=Hideaways - Whiskey Tango Sessions
DYEAR=2006
DGENRE=Country Rock
TTITLE0=Don't Try and Love Me
TTITLE1=Stranger's Heart
TTITLE2=Society of Fear
TTITLE3=El Centro County Line
TTITLE4=Since You Said Goodbye
TTITLE5=Long Dark Road
TTITLE6=No One in the World
TTITLE7=If I Could Find a Way
TTITLE8=Picture of Lonely
TTITLE9=I Gotta Problem
TTITLE10=The Way You Control the Lines
TTITLE11=Cavalry
EXTD=
EXTT0=
EXTT1=
EXTT2=
EXTT3=
EXTT4=
EXTT5=
EXTT6=
EXTT7=
EXTT8=
EXTT9=
EXTT10=
EXTT11=
PLAYORDER=
